<svg id="Layer_1" data-name="Layer 1" xmlns="http://www.w3.org/2000/svg" viewBox="0 0 708.66 708.66"><defs><style>.cls-1{fill:#fff;}.cls-2{fill:#2b8f9e;}</style></defs><path class="cls-1" d="M506.72,552.33a249.45,249.45,0,0,0,97.51-198c0-138-111.88-249.9-249.9-249.9-4.88,0-9.72.18-14.53.45H104.43V604.23A353.26,353.26,0,0,0,256.72,694V604.23H349v-.13c1.77,0,3.52.13,5.3.13h.16L428.17,700a351.74,351.74,0,0,0,141.67-65.62Z"/><path class="cls-2" d="M707.74,354.33c0,114-54.06,215.39-137.9,280l-63.12-82a249.44,249.44,0,0,0,97.51-198c0-138-111.88-249.9-249.9-249.9-4.88,0-9.71.18-14.52.45H104.43V604.23A352.34,352.34,0,0,1,.92,354.33C.92,159.15,159.15.92,354.33.92S707.74,159.15,707.74,354.33ZM354.33,604.23c-1.78,0-3.53-.1-5.3-.13v.13H256.72V694a353.61,353.61,0,0,0,171.45,6l-73.68-95.73Zm14.55-269.17c-23-6.75-59.63-13.11-59.63-40.53,0-17.09,16.71-29.81,48.1-29.81,25.85,0,50.07,12.31,61.22,26.24,3.58,4.76,7.55,6.35,12.72,3.16l14.29-8.75c5.17-3.17,6.77-7.54,3.58-12.72-12.72-20.26-41.32-36.15-75.1-40.14V216.63c0-6-3.58-9.55-9.55-9.55H348.62c-6,0-9.55,3.57-9.55,9.55v15.88c-41.74,4.77-71.94,27-71.94,64.39,0,50.88,59.61,63.6,82.26,70,21.47,6,60.82,12.71,60.82,41.34,0,22.66-18.28,33.78-52.06,33.78-30.2,0-56.44-15.11-68-32.21-3.58-5.15-7.55-6.35-12.72-3.16L262,415.75c-4.76,2.78-6.75,7.54-4,12.72,13.11,26.62,42.92,43.33,81.08,47.29v16.3c0,6,3.58,9.53,9.55,9.53h15.89c6,0,9.55-3.56,9.55-9.53V476.15c48.09-4.35,77.88-28.61,77.88-69.54C451.94,355.32,390.33,341.83,368.88,335.06Z"/></svg>