<svg id="Layer_1" data-name="Layer 1" xmlns="http://www.w3.org/2000/svg" viewBox="0 0 3033.07 685.98"><defs><style>.cls-1{fill:#fff;}.cls-2{fill:#2d88b6;}</style></defs><path class="cls-1" d="M489.93,533.56A240.07,240.07,0,0,0,583.79,343c0-132.84-107.69-240.53-240.53-240.53-4.7,0-9.35.17-14,.44H102.73V583.52A339.87,339.87,0,0,0,249.31,669.9V583.52h88.84v-.13c1.71,0,3.4.13,5.11.13h.15l70.92,92.14A338.79,338.79,0,0,0,550.69,612.5Z"/><path class="cls-2" d="M683.41,343c0,109.76-52,207.31-132.72,269.51l-60.76-78.94A240.06,240.06,0,0,0,583.78,343c0-132.84-107.68-240.53-240.52-240.53-4.7,0-9.35.17-14,.44H102.73V583.52A339.09,339.09,0,0,1,3.1,343C3.1,155.13,155.39,2.83,343.26,2.83S683.41,155.13,683.41,343ZM343.26,583.52c-1.71,0-3.4-.09-5.11-.13v.13H249.31V669.9a340.23,340.23,0,0,0,165,5.76l-70.92-92.14Z"/><path class="cls-2" d="M980.85,103.13h232.79c70.95,0,149.28,53.2,149.28,161.84,0,79.07-42.13,129.33-92.37,150l102.71,168.49H1247.64l-95.33-156.67h-62.83V583.48H980.85Zm214.33,218.74c31,0,59.1-19.95,59.1-56.9s-28.08-56.17-59.1-56.17h-105.7V321.87Z"/><path class="cls-2" d="M1399.82,413.51c0-101.25,66.53-176.62,170-176.62,102,0,164.06,75.37,164.06,176.62v28.08h-232c8.86,38.43,36.94,59.86,71.69,59.86,42.84,0,62.81-19.95,71.67-31.77l71.69,53.2c-29.57,41.39-81.29,68-143.36,68C1468.55,590.87,1399.82,514.75,1399.82,413.51Zm235-37.69c-8.86-32.52-29.57-56.16-65-56.16-34,0-56.91,21.43-66.51,56.16Z"/><path class="cls-2" d="M1797.38,243.54h104.95v31c24.39-25.12,56.89-36.21,86.46-36.21,37,0,78.33,12.57,103.47,48.78,28.8-36.95,73.15-48.78,109.36-48.78,58.38,0,126.37,30.3,126.37,137.46V583.48H2223.06V390.6c0-55.42-41.39-60.6-54.69-60.6-14,0-53.21,5.18-53.21,60.6V583.48H2010.23V390.6c0-55.42-41.39-60.6-54.69-60.6-14,0-53.21,5.18-53.21,60.6V583.48H1797.38Z"/><path class="cls-2" d="M2406.27,143c0-35.47,28.82-54.68,56.16-54.68,28.09,0,56.91,19.21,56.91,54.68,0,36.22-28.82,57.64-56.91,57.64C2435.09,200.67,2406.27,179.25,2406.27,143Zm3.7,100.51h106.41l-.74,339.94H2410Z"/><path class="cls-2" d="M2618.33,480V322.61h-42.84V243.54h42.84V138.6H2724V243.54h130.8V138.6H2960.5V243.54H3030v79.07H2960.5V462.28c0,41.39,25.12,39.91,45.09,39.91h20.68v81.29h-66.51c-72.43,0-104.93-37.69-104.93-103.46V322.61H2724V462.28c0,41.39,25.12,39.91,44.33,39.91h21.44v81.29h-66.51C2650.12,583.48,2618.33,545.79,2618.33,480Z"/><path class="cls-2" d="M437,343.21a93.94,93.94,0,0,0-93.84-93.94H249.42v87.5c-.15,2.14-.33,4.27-.33,6.45s.18,4.31.33,6.45v87.5h93.73A94,94,0,0,0,437,343.21Z"/></svg>