<svg id="Layer_1" data-name="Layer 1" xmlns="http://www.w3.org/2000/svg" viewBox="0 0 680.31 680.31"><defs><style>.cls-1{fill:#fff;}.cls-2{fill:#2b8f9e;}</style></defs><path class="cls-1" d="M486.83,530.73a240.07,240.07,0,0,0,93.86-190.57C580.69,207.32,473,99.63,340.16,99.63c-4.7,0-9.35.17-14,.43H99.63V580.68a339.89,339.89,0,0,0,146.58,86.39V580.68h88.84v-.13c1.71,0,3.4.13,5.11.13h.15l70.92,92.14a338.52,338.52,0,0,0,136.36-63.16Z"/><path class="cls-2" d="M680.31,340.16c0,109.76-52,207.31-132.72,269.5l-60.76-78.93a240.06,240.06,0,0,0,93.85-190.57C580.68,207.32,473,99.63,340.16,99.63c-4.7,0-9.35.17-14,.43H99.63V580.68A339.05,339.05,0,0,1,0,340.16C0,152.29,152.29,0,340.16,0S680.31,152.29,680.31,340.16ZM340.16,580.68c-1.71,0-3.4-.09-5.11-.12v.12H246.21v86.39a340.37,340.37,0,0,0,165,5.75l-70.92-92.14Zm-3.11-259.07c-22.18-6.49-57.39-12.62-57.39-39,0-16.45,16.08-28.69,46.29-28.69,24.88,0,48.2,11.84,58.93,25.25,3.44,4.58,7.26,6.12,12.24,3l13.75-8.43c5-3,6.52-7.26,3.45-12.24C402.08,242,374.55,226.75,342,222.91V207.62c0-5.75-3.44-9.2-9.19-9.2H317.55c-5.75,0-9.19,3.45-9.19,9.2v15.29c-40.17,4.58-69.24,26-69.24,62,0,49,57.37,61.21,79.17,67.33C339,358,376.83,364.45,376.83,392c0,21.81-17.6,32.51-50.11,32.51-29.07,0-54.32-14.54-65.42-31-3.45-4.95-7.26-6.12-12.24-3l-14.92,8.8c-4.59,2.68-6.49,7.26-3.82,12.24,12.62,25.63,41.31,41.71,78,45.52v15.69c0,5.75,3.44,9.17,9.19,9.17h15.29c5.75,0,9.19-3.42,9.19-9.17V457.41c46.29-4.19,75-27.54,75-66.94C417,341.11,357.7,328.13,337.05,321.61Z"/></svg>