<?xml version="1.0" encoding="UTF-8" standalone="no"?>
<svg
   xmlns:svg="http://www.w3.org/2000/svg"
   xmlns="http://www.w3.org/2000/svg"
   height="1024"
   width="1024"
   version="1.1"
   viewBox="0 0 1024 1024"
   data-name="Layer 1"
   id="Layer_1">
  <defs
     id="defs4">
    <style
       id="style2">.cls-1{fill:#fff;}.cls-2{fill:#2d88b6;}</style>
  </defs>
  <path
     style="fill:#ffffff;stroke-width:1.49465466"
     id="path6"
     d="m 732.74287,797.58591 a 358.82174,358.82174 0 0 0 140.28828,-284.8214 c 0,-198.54992 -160.95936,-359.50928 -359.50928,-359.50928 -7.02488,0 -13.97502,0.25409 -20.92517,0.65764 H 154.01258 V 872.25885 A 507.98828,507.98828 0 0 0 373.09906,1001.3671 V 872.25885 h 132.78512 v -0.1943 c 2.55586,0 5.08183,0.1943 7.63769,0.1943 h 0.2242 l 106.0009,137.71745 a 506.37405,506.37405 0 0 0 203.81111,-94.40236 z"
     class="cls-1" />
  <path
     style="fill:#2d88b6;stroke-width:1.49465466"
     id="path8"
     d="m 1021.9287,512.76451 c 0,164.0533 -77.72209,309.85686 -198.37062,402.82438 L 732.74287,797.60085 A 358.8068,358.8068 0 0 0 873.01621,512.76451 c 0,-198.54992 -160.94442,-359.50928 -359.49434,-359.50928 -7.02488,0 -13.97502,0.25409 -20.92517,0.65764 H 154.01258 V 872.25885 A 506.82245,506.82245 0 0 1 5.1001377,512.76451 C 5.1001377,231.96374 232.7211,4.3278363 513.52187,4.3278363 c 280.80077,0 508.40683,227.6359037 508.40683,508.4366737 z M 513.52187,872.25885 c -2.55586,0 -5.08183,-0.13452 -7.63769,-0.1943 v 0.1943 H 373.09906 v 129.10825 a 508.52636,508.52636 0 0 0 246.61802,8.6092 L 513.71617,872.25885 Z"
     class="cls-2" />
  <path
     style="fill:#2d88b6;stroke-width:1.49465466"
     id="path20"
     d="M 653.6308,513.07839 A 140.40786,140.40786 0 0 0 513.3724,372.67053 H 373.26347 v 130.78228 c -0.22419,3.19857 -0.49323,6.38218 -0.49323,9.64053 0,3.25834 0.26904,6.44196 0.49323,9.64052 V 653.51614 H 513.35746 A 140.49754,140.49754 0 0 0 653.6308,513.07839 Z"
     class="cls-2" />
</svg>
