<?xml version="1.0" encoding="UTF-8" standalone="no"?>
<!DOCTYPE svg PUBLIC "-//W3C//DTD SVG 1.1//EN" "http://www.w3.org/Graphics/SVG/1.1/DTD/svg11.dtd">
<svg width="100%" height="100%" viewBox="0 0 1800 442" version="1.1" xmlns="http://www.w3.org/2000/svg" xmlns:xlink="http://www.w3.org/1999/xlink" xml:space="preserve" xmlns:serif="http://www.serif.com/" style="fill-rule:evenodd;clip-rule:evenodd;stroke-linejoin:round;stroke-miterlimit:2;">
    <g id="logo" transform="matrix(0.599809,0,0,0.735754,0,0)">
        <rect x="0" y="0" width="3000" height="600" style="fill:none;"/>
        <g transform="matrix(1.20023,0,0,1.35915,-285.507,-105.685)">
            <g id="path10" transform="matrix(1.38906,0,0,1,-1167.19,0)">
                <path d="M1021.55,93.51L1223.69,93.51C1285.3,93.51 1353.31,139.707 1353.31,234.044C1353.31,302.704 1316.73,346.347 1273.11,364.296L1362.29,510.604L1253.21,510.604L1170.43,374.56L1115.87,374.56L1115.87,510.621L1021.55,510.621L1021.55,93.51ZM1207.66,283.453C1234.58,283.453 1258.98,266.129 1258.98,234.044C1258.98,201.958 1234.59,185.269 1207.66,185.269L1115.87,185.269L1115.87,283.453L1207.66,283.453Z" style="fill:white;fill-rule:nonzero;"/>
            </g>
            <g id="path12" transform="matrix(1.38906,0,0,1,-1167.19,0)">
                <path d="M1385.36,363.028C1385.36,275.108 1443.13,209.661 1532.98,209.661C1621.55,209.661 1675.44,275.108 1675.44,363.028L1675.44,387.412L1473.98,387.412C1481.67,420.782 1506.06,439.391 1536.23,439.391C1573.43,439.391 1590.77,422.067 1598.47,411.803L1660.72,458C1635.04,493.94 1590.13,517.047 1536.23,517.047C1445.04,517.038 1385.36,450.94 1385.36,363.028ZM1589.42,330.3C1581.73,302.062 1563.74,281.534 1532.98,281.534C1503.45,281.534 1483.56,300.143 1475.22,330.3L1589.42,330.3Z" style="fill:white;fill-rule:nonzero;"/>
            </g>
            <g id="path14" transform="matrix(1.38906,0,0,1,-1167.19,0)">
                <path d="M1730.58,215.435L1821.71,215.435L1821.71,242.354C1842.89,220.541 1871.11,210.911 1896.79,210.911C1928.92,210.911 1964.81,221.826 1986.63,253.269C2011.64,221.184 2050.16,210.911 2081.6,210.911C2132.29,210.911 2191.33,237.222 2191.33,330.274L2191.33,510.621L2100.22,510.621L2100.22,343.134C2100.22,295.011 2064.27,290.513 2052.72,290.513C2040.57,290.513 2006.52,295.011 2006.52,343.134L2006.52,510.621L1915.4,510.621L1915.4,343.134C1915.4,295.011 1879.46,290.513 1867.91,290.513C1855.76,290.513 1821.71,295.011 1821.71,343.134L1821.71,510.621L1730.58,510.621L1730.58,215.435Z" style="fill:white;fill-rule:nonzero;"/>
            </g>
            <g id="path16" transform="matrix(1.38906,0,0,1,-1167.19,0)">
                <path d="M2259.3,128.131C2259.3,97.331 2284.33,80.65 2308.07,80.65C2332.46,80.65 2357.49,97.331 2357.49,128.131C2357.49,159.583 2332.46,178.183 2308.07,178.183C2284.33,178.209 2259.3,159.609 2259.3,128.131ZM2262.52,215.409L2354.92,215.409L2354.28,510.595L2262.54,510.595L2262.52,215.409Z" style="fill:white;fill-rule:nonzero;"/>
            </g>
            <g id="path18" transform="matrix(1.38906,0,0,1,-1167.19,0)">
                <path d="M2443.45,420.765L2443.45,284.095L2406.25,284.095L2406.25,215.435L2443.45,215.435L2443.45,124.311L2535.21,124.311L2535.21,215.435L2648.79,215.435L2648.79,124.311L2740.57,124.311L2740.57,215.435L2800.92,215.435L2800.92,284.095L2740.57,284.095L2740.57,405.378C2740.57,441.319 2762.38,440.033 2779.72,440.033L2797.68,440.033L2797.68,510.621L2739.93,510.621C2677.03,510.621 2648.81,477.893 2648.81,420.782L2648.81,284.095L2535.21,284.095L2535.21,405.378C2535.21,441.319 2557.02,440.033 2573.7,440.033L2592.32,440.033L2592.32,510.621L2534.56,510.621C2471.05,510.621 2443.45,477.893 2443.45,420.765Z" style="fill:white;fill-rule:nonzero;"/>
            </g>
        </g>
    </g>
</svg>
