<?xml version="1.0" encoding="UTF-8" standalone="no"?>
<svg
   xmlns:svg="http://www.w3.org/2000/svg"
   xmlns="http://www.w3.org/2000/svg"
   height="600"
   width="3000"
   version="1.1"
   viewBox="0 0 2999.9999 600.00002"
   data-name="Layer 1"
   id="Layer_1">
  <defs
     id="defs4">
    <style
       id="style2">.cls-1{fill:#fff;}.cls-2{fill:#2d88b6;}</style>
  </defs>
  <path
     style="fill:#ffffff;stroke-width:0.86834812"
     id="path6"
     d="m 595.2551,467.27349 a 208.46433,208.46433 0 0 0 81.50316,-165.47242 c 0,-115.35136 -93.51241,-208.863773 -208.86378,-208.863773 -4.08123,0 -8.11905,0.147619 -12.15687,0.382073 h -196.7069 v 417.33679 a 295.12548,295.12548 0 0 0 127.28247,75.00791 v -75.00791 h 77.14404 v -0.11289 c 1.48488,0 2.95239,0.11289 4.43726,0.11289 h 0.13025 l 61.58325,80.0096 a 294.18766,294.18766 0 0 0 118.40795,-54.84487 z"
     class="cls-1" />
  <path
     style="fill:#2d88b6;stroke-width:0.86834812"
     id="path8"
     d="m 763.2631,301.80107 c 0,95.30989 -45.15411,180.01725 -115.24717,234.0285 l -52.76083,-68.5474 a 208.45565,208.45565 0 0 0 81.49447,-165.4811 c 0,-115.35136 -93.50372,-208.863773 -208.85509,-208.863773 -4.08123,0 -8.11905,0.147619 -12.15687,0.382073 H 259.03071 V 510.65616 A 294.44816,294.44816 0 0 1 172.51719,301.80107 c 0,-163.13656 132.24073,-295.38598 295.37729,-295.38598 163.13656,0 295.36862,132.24942 295.36862,295.38598 z M 467.89448,510.65616 c -1.48487,0 -2.95238,-0.0781 -4.43726,-0.11289 v 0.11289 h -77.14404 v 75.00791 a 295.43808,295.43808 0 0 0 143.27744,5.00169 l -61.58325,-80.0096 z"
     class="cls-2" />
  <path
     style="fill:#2d88b6;stroke-width:0.86834812"
     id="path10"
     d="m 1021.5445,93.510406 h 202.1428 c 61.6093,0 129.627,46.196124 129.627,140.533464 0,68.66028 -36.5835,112.30346 -80.2093,130.25221 l 89.188,146.30798 h -109.0819 l -82.7796,-136.0441 h -54.5583 v 136.06147 h -94.3287 z m 186.1131,189.942464 c 26.9188,0 51.3194,-17.32354 51.3194,-49.409 0,-32.08547 -24.3832,-48.77512 -51.3194,-48.77512 h -91.7844 v 98.18412 z"
     class="cls-2" />
  <path
     style="fill:#2d88b6;stroke-width:0.86834812"
     id="path12"
     d="m 1385.3564,363.0283 c 0,-87.92025 57.7712,-153.36765 147.6191,-153.36765 88.5716,0 142.4612,65.4474 142.4612,153.36765 v 24.38321 H 1473.98 c 7.6935,33.37062 32.0768,51.97932 62.2518,51.97932 37.2001,0 54.541,-17.32355 62.2346,-27.58742 l 62.2518,46.19612 c -25.677,35.94093 -70.588,59.04767 -124.4864,59.04767 -91.1939,-0.009 -150.8754,-66.10734 -150.8754,-154.0189 z m 204.0618,-32.72804 c -7.6936,-28.23869 -25.6771,-48.76644 -56.4427,-48.76644 -29.5238,0 -49.4176,18.60871 -57.7538,48.76644 z"
     class="cls-2" />
  <path
     style="fill:#2d88b6;stroke-width:0.86834812"
     id="path14"
     d="m 1730.5768,215.43517 h 91.1332 v 26.91879 c 21.179,-21.81291 49.4003,-31.44289 75.0774,-31.44289 32.1288,0 68.0177,10.91514 89.8479,42.35802 25.0085,-32.08546 63.5197,-42.35802 94.9626,-42.35802 50.6941,0 109.7331,26.31095 109.7331,119.36313 v 180.34723 h -91.1157 V 343.13444 c 0,-48.12385 -35.941,-52.6219 -47.49,-52.6219 -12.1569,0 -46.2048,4.49805 -46.2048,52.6219 v 167.48699 h -91.1158 V 343.13444 c 0,-48.12385 -35.9409,-52.6219 -47.4899,-52.6219 -12.1569,0 -46.2048,4.49805 -46.2048,52.6219 v 167.48699 h -91.1332 z"
     class="cls-2" />
  <path
     style="fill:#2d88b6;stroke-width:0.86834812"
     id="path16"
     d="m 2259.3053,128.13145 c 0,-30.800312 25.0258,-47.48128 48.7665,-47.48128 24.3919,0 49.4176,16.680968 49.4176,47.48128 0,31.45156 -25.0257,50.05158 -49.4176,50.05158 -23.7407,0.026 -48.7665,-18.57396 -48.7665,-50.05158 z m 3.2129,87.27767 h 92.4009 l -0.6425,295.18626 h -91.7323 z"
     class="cls-2" />
  <path
     style="fill:#2d88b6;stroke-width:0.86834812"
     id="path18"
     d="M 2443.4472,420.76476 V 284.09545 h -37.2 v -68.66028 h 37.2 v -91.12446 h 91.7584 v 91.12446 h 113.5799 v -91.12446 h 91.7844 v 91.12446 h 60.3502 v 68.66028 h -60.3502 v 121.28218 c 0,35.94093 21.8129,34.65578 39.1538,34.65578 h 17.9575 v 70.58802 h -57.7539 c -62.8944,0 -91.1157,-32.72804 -91.1157,-89.8393 V 284.09545 h -113.606 v 121.28218 c 0,35.94093 21.8129,34.65578 38.4938,34.65578 h 18.6174 v 70.58802 h -57.7538 c -63.511,0 -91.1158,-32.72804 -91.1158,-89.85667 z"
     class="cls-2" />
  <path
     style="fill:#2d88b6;stroke-width:0.86834812"
     id="path20"
     d="M 549.29343,301.98342 A 81.572622,81.572622 0 0 0 467.80765,220.4108 h -81.39896 v 75.98046 c -0.13025,1.85827 -0.28655,3.70785 -0.28655,5.60085 0,1.893 0.1563,3.74258 0.28655,5.60084 v 75.98046 h 81.39027 a 81.624723,81.624723 0 0 0 81.49447,-81.58999 z"
     class="cls-2" />
</svg>
